# xmcd
#
# Track frame offsets:
#	150
#	18154
#	34672
#	50988
#	70931
#	84322
#	102834
#	122397
#	136661
#	149732
#	165378
#	184484
#	204672
#	220765
#	234276
#	249344
#	267263
#	284606
#	304971
#	321893
#
# Disc length: 4592 seconds
#
# Revision: 5
# Processed by: cddbd v1.5.2PL0 Copyright (c) Steve Scherf et al.
# Submitted via: audiograbber 1.83.01
#
DISCID=2311ee14
DTITLE=Brooks and Dunn - The Greatest Hits Collection II
DYEAR=2004
DGENRE=Country
TTITLE0=That's What It's All About
TTITLE1=How Long Gone
TTITLE2=Ain't Nothing 'Bout You
TTITLE3=The Long Goodbye
TTITLE4=My Heart Is Lost To You
TTITLE5=I Can't Get Over You
TTITLE6=Red Dirt Road
TTITLE7=Husbands And Wives
TTITLE8=That's What She Gets For Loving Me
TTITLE9=You Can't Take The Honky Tonk Out Of The Girl
TTITLE10=It's Getting Better All The Time
TTITLE11=Only In America
TTITLE12=A Man This Lonely
TTITLE13=Independent Trucker
TTITLE14=I'll Never Forgive My Heart
TTITLE15=If You See Him/If You See Her (with Reba McEntire)
TTITLE16=South Of Santa Fe
TTITLE17=Red Dirt Road (Live)
TTITLE18=My Maria (Live)
TTITLE19=Only In America (Live)
EXTD=Atista
EXTT0=
EXTT1=
EXTT2=
EXTT3=
EXTT4=
EXTT5=
EXTT6=
EXTT7=
EXTT8=
EXTT9=
EXTT10=
EXTT11=
EXTT12=
EXTT13=
EXTT14=
EXTT15=
EXTT16=
EXTT17=
EXTT18=
EXTT19=
PLAYORDER=
